<svg width="200" height="200" viewBox="0 0 200 200" fill="none" xmlns="http://www.w3.org/2000/svg">
  <path
    d="M183.2 123.174V142.134C183.2 145.787 181.254 149.147 178.107 150.961L161.68 160.454C158.534 162.267 154.64 162.267 151.494 160.454L135.067 150.961C132 149.174 130.054 145.921 129.974 142.374H145.627C155.387 142.374 164.32 136.854 168.667 128.107C168.694 128.081 168.694 128.027 168.72 128.001L176.027 113.094L176.507 113.361L178.134 114.294C178.907 114.747 179.6 115.254 180.187 115.867C182.08 117.787 183.2 120.401 183.2 123.174Z"
    fill="#CEE2F4" stroke="black" stroke-width="0.387601" stroke-miterlimit="10" stroke-linejoin="round"/>
  <path
    d="M180.16 115.893L174.213 128C169.893 136.8 160.933 142.373 151.12 142.373H135.467C135.467 142.293 135.467 142.213 135.467 142.107V137.973H148.373C156.373 137.973 163.813 134.267 168.64 128.107C169.733 126.72 170.667 125.2 171.467 123.6L176.48 113.387L178.107 114.32C178.853 114.773 179.547 115.307 180.16 115.893Z"
    fill="black" stroke="black" stroke-width="0.387601" stroke-miterlimit="10" stroke-linejoin="round"/>
  <path
    d="M176.001 113.12L168.694 128.027C164.374 136.827 155.414 142.4 145.601 142.4H129.947C129.947 142.32 129.947 142.24 129.947 142.134V138H142.854C152.667 138 161.627 132.427 165.947 123.627L172.187 110.934L176.001 113.12Z"
    fill="#63D196" stroke="black" stroke-width="0.387601" stroke-miterlimit="10" stroke-linejoin="round"/>
  <path
    d="M180.561 103.841L176.001 113.121L172.161 110.907L161.654 104.854C158.507 103.041 154.614 103.041 151.467 104.854L135.041 114.347C131.894 116.161 129.947 119.547 129.947 123.174V142.134C129.947 142.214 129.947 142.321 129.947 142.401H73.2808C68.1875 142.401 63.2008 143.921 58.9342 146.774L36.4808 161.841L33.7341 157.441L36.4808 138.561C36.4808 134.667 35.6008 130.854 33.9208 127.361L22.1075 102.934C18.6408 95.7339 18.6941 87.3339 22.2675 80.2139L34.0008 56.7739C38.3741 48.0539 47.2808 42.5605 57.0141 42.5605H145.574C155.387 42.5605 165.227 51.2272 165.227 51.2272L166.347 53.4405L180.534 81.0939C184.081 88.2939 184.081 96.6672 180.561 103.841Z"
    fill="#FF8166" stroke="black" stroke-width="0.387601" stroke-miterlimit="10" stroke-linejoin="round"/>
  <path
    d="M172.16 110.907L165.92 123.6C161.6 132.4 152.64 137.973 142.827 137.973H129.92V123.147C129.92 119.493 131.867 116.133 135.013 114.32L151.44 104.827C154.587 103.013 158.48 103.013 161.627 104.827L172.16 110.907Z"
    fill="#EF4723" stroke="black" stroke-width="0.387601" stroke-miterlimit="10" stroke-linejoin="round"/>
  <path
    d="M177.813 99.4408L172.187 110.908L161.68 104.854C158.533 103.041 154.64 103.041 151.493 104.854L135.067 114.347C131.92 116.161 129.973 119.548 129.973 123.174V138.001H70.5334C65.4401 138.001 60.4534 139.521 56.1868 142.374L33.7334 157.441V134.161C33.7334 130.268 32.8534 126.454 31.1734 122.961L19.3868 98.5608C15.9201 91.3608 15.9734 82.9608 19.5468 75.8408L31.2801 52.4008C35.6534 43.6808 44.5601 38.1875 54.2934 38.1875H142.853C152.187 38.1875 160.72 43.2275 165.253 51.2808C165.493 51.7075 165.733 52.1342 165.947 52.5875L166.4 53.4942L177.84 76.7475C181.333 83.8942 181.333 92.2675 177.813 99.4408Z"
    fill="#FDD425" stroke="black" stroke-width="0.387601" stroke-miterlimit="10" stroke-linejoin="round"/>
  <path d="M92.542 97.3917H108.388L110.401 63.332L108.861 62L92.542 97.3917Z" fill="#FDD425" stroke="black"
        stroke-width="0.387601" stroke-miterlimit="10" stroke-linecap="round" stroke-linejoin="round"/>
  <path
    d="M109.453 109.518C109.453 114.481 105.428 118.507 100.465 118.507C97.8501 118.507 95.492 117.392 93.8442 115.606C95.2848 116.602 97.041 117.184 98.9256 117.184C103.889 117.184 107.914 113.159 107.914 108.196C107.914 105.848 107.016 103.716 105.546 102.108C107.904 103.726 109.453 106.44 109.453 109.518Z"
    fill="#FDD425" stroke="black" stroke-width="0.387601" stroke-miterlimit="10" stroke-linecap="round"
    stroke-linejoin="round"/>
  <path d="M91.0128 96.0696H106.849L108.862 62H89L91.0128 96.0696Z" fill="#FF8166" stroke="black"
        stroke-width="0.387601" stroke-miterlimit="10" stroke-linecap="round" stroke-linejoin="round"/>
  <path
    d="M107.924 108.185C107.924 113.148 103.899 117.174 98.9359 117.174C97.0514 117.174 95.2951 116.592 93.8546 115.595C92.3844 113.997 91.4866 111.856 91.4866 109.508C91.4866 104.545 95.5122 100.519 100.475 100.519C102.36 100.519 104.116 101.101 105.556 102.098C107.017 103.706 107.924 105.837 107.924 108.185Z"
    fill="#EF4723" stroke="black" stroke-width="0.387601" stroke-miterlimit="10" stroke-linecap="round"
    stroke-linejoin="round"/>
  <path
    d="M105.546 102.108C104.096 101.111 102.35 100.529 100.465 100.529C95.5021 100.529 91.4765 104.554 91.4765 109.517C91.4765 111.866 92.3743 113.997 93.8445 115.605C91.4863 113.987 89.9373 111.274 89.9373 108.195C89.9373 103.232 93.9629 99.2067 98.9258 99.2067C101.55 99.1969 103.908 100.322 105.546 102.108Z"
    fill="#FF8166" stroke="black" stroke-width="0.387601" stroke-miterlimit="10" stroke-linecap="round"
    stroke-linejoin="round"/>
  <path d="M91.0129 96.0696L92.5423 97.3917H108.388L106.849 96.0696H91.0129Z" fill="#EF4723" stroke="black"
        stroke-width="0.387601" stroke-miterlimit="10" stroke-linecap="round" stroke-linejoin="round"/>
  <path d="M104.807 101.388L106.79 103.124" stroke="black" stroke-width="0.387601" stroke-miterlimit="10"
        stroke-linecap="round" stroke-linejoin="round"/>
  <path d="M92.6116 114.55L94.8316 116.524" stroke="black" stroke-width="0.387601" stroke-miterlimit="10"
        stroke-linecap="round" stroke-linejoin="round"/>
</svg>
